<?xml version="1.0" encoding="UTF-8"?>
<svg id="Layer_1" xmlns="http://www.w3.org/2000/svg" version="1.1" viewBox="0 0 1080 1080">
  <!-- Generator: Adobe Illustrator 29.1.0, SVG Export Plug-In . SVG Version: 2.1.0 Build 142)  -->
  <defs>
    <style>
      .st0 {
        fill: gray;
      }

      .st1 {
        fill: #fbfbfb;
      }
    </style>
  </defs>
  <rect class="st1" x="-.5" y="-.5" width="1081" height="1081"/>
  <g>
    <path class="st0" d="M210.62,538.92c2,1.17,4.17,1.76,6.51,1.76h32.38c2.04,0,3.72-.67,5.04-2.02,1.32-1.34,1.99-3.01,1.99-5.01v-21.37h-13.31c-2.61,0-5.02.64-7.23,1.93-2.21,1.29-3.97,3-5.27,5.16-1.31,2.15-1.96,4.47-1.96,6.97,0,1.11.18,2.24.55,3.37.36,1.13.85,2.14,1.47,3.02h-13.65c-1.38,0-2.58-.5-3.6-1.5-1.02-1-1.53-2.21-1.53-3.63v-7.08h-7.89v7.08c0,2.34.59,4.52,1.76,6.54,1.17,2.02,2.75,3.61,4.75,4.78ZM237.58,523.57c.58-.96,1.36-1.75,2.36-2.36,1-.61,2.09-.92,3.28-.92l5.3-.06v10.66c0,.5-.17.93-.52,1.3-.35.36-.77.55-1.27.55h-3.63c-1.73,0-3.23-.58-4.49-1.76-1.27-1.17-1.9-2.62-1.9-4.35,0-1.07.29-2.09.86-3.05Z"/>
    <path class="st0" d="M245.64,507.26c1.23,0,2.29-.45,3.2-1.35.9-.9,1.35-1.97,1.35-3.2s-.45-2.29-1.35-3.17c-.9-.88-1.97-1.32-3.2-1.32s-2.34.44-3.23,1.32c-.88.88-1.33,1.94-1.33,3.17s.44,2.3,1.33,3.2c.88.9,1.96,1.35,3.23,1.35Z"/>
    <rect class="st0" x="264.42" y="500.35" width="7.95" height="40.33"/>
    <path class="st0" d="M433.49,530.71c0,.54-.2,1.01-.6,1.41-.4.4-.87.61-1.41.61h-5.82c-.61,0-1.09-.2-1.44-.61-.35-.4-.52-.95-.52-1.64v-1.38c0-3.23-.59-5.94-1.76-8.15-1.17-2.21-2.6-3.93-4.29-5.15-3.19-2.46-6.99-3.69-11.41-3.69-3.5,0-7.01.77-10.54,2.3l2.88,7.2c2.8-1,5.38-1.5,7.72-1.5,2.65,0,4.82.65,6.51,1.96,2.07,1.54,3.11,4.03,3.11,7.49v.98c0,.46.11.88.35,1.27.23.38.52.69.86.92h-109.89v-20.45h-13.48c-2.57,0-4.95.62-7.11,1.87-2.17,1.25-3.89,2.95-5.16,5.1-1.27,2.15-1.9,4.5-1.9,7.03s.63,5.02,1.9,7.23c1.27,2.21,2.99,3.96,5.16,5.24,2.17,1.29,4.54,1.93,7.11,1.93h5.24l-.11.52c-.31,1.15-.77,2.02-1.38,2.59-1.38,1.23-3.1,2.02-5.15,2.36-2.06.35-5.29.52-9.71.52l-.06,7.89c3.92.04,7.05-.07,9.39-.32,2.34-.25,4.36-.73,6.05-1.44,1.69-.71,3.28-1.78,4.78-3.2,2.57-2.38,4.03-5.36,4.38-8.93h124.3c1.8,0,3.47-.45,4.98-1.35,1.52-.9,2.73-2.11,3.63-3.63.9-1.52,1.35-3.18,1.35-4.98v-30.3h-7.95v30.3ZM299.22,532.73h-5.47c-1.73,0-3.21-.62-4.43-1.87-1.23-1.25-1.84-2.77-1.84-4.58,0-1.69.61-3.11,1.84-4.26,1.23-1.15,2.71-1.73,4.43-1.73h5.47v12.44Z"/>
    <rect class="st0" x="451" y="500.35" width="7.95" height="40.33"/>
    <path class="st0" d="M501.01,507.32c1.27,0,2.34-.44,3.23-1.33s1.32-1.96,1.32-3.23-.44-2.28-1.32-3.17c-.88-.88-1.96-1.33-3.23-1.33s-2.3.44-3.2,1.33c-.9.88-1.35,1.94-1.35,3.17s.45,2.34,1.35,3.23c.9.88,1.97,1.33,3.2,1.33Z"/>
    <path class="st0" d="M489.48,507.32c1.27,0,2.34-.44,3.23-1.33.88-.88,1.33-1.96,1.33-3.23s-.44-2.28-1.33-3.17c-.88-.88-1.96-1.33-3.23-1.33s-2.3.44-3.2,1.33c-.9.88-1.35,1.94-1.35,3.17s.45,2.34,1.35,3.23c.9.88,1.97,1.33,3.2,1.33Z"/>
    <path class="st0" d="M591.46,540.68h52.6c1.3,0,2.43-.47,3.37-1.41.94-.94,1.41-2.08,1.41-3.43v-8.12c0-2.84-.7-5.46-2.1-7.87-1.4-2.4-3.29-4.29-5.68-5.67-2.38-1.38-4.97-2.07-7.78-2.07h-9.97l8.76-12.16-6.57-4.67-11.52,16.13,5.88,8.76h12.96c1.46,0,2.8.36,4.03,1.07,1.23.71,2.21,1.69,2.94,2.94.73,1.25,1.09,2.6,1.09,4.06v2.94c0,.39-.15.74-.46,1.07-.31.33-.67.49-1.09.49h-130.49c-.84,0-1.45-.19-1.81-.58-.37-.38-.55-.98-.55-1.78l-.06-18.09h-14.29c-2.69,0-5.11.57-7.26,1.7-2.15,1.13-3.83,2.74-5.04,4.81-1.21,2.07-1.81,4.46-1.81,7.14v1.15c0,2.46.64,4.73,1.93,6.83,1.29,2.09,3.01,3.74,5.18,4.95,2.17,1.21,4.5,1.81,7,1.81,1.73,0,3.38-.32,4.95-.95,1.58-.63,2.96-1.51,4.15-2.62.96,1.12,2.1,1.99,3.43,2.62,1.33.63,2.72.95,4.18.95h82.62ZM498.47,526.33c0,1.77-.61,3.27-1.84,4.52-1.23,1.25-2.73,1.87-4.5,1.87s-3.16-.58-4.41-1.76c-1.25-1.17-1.87-2.58-1.87-4.23v-.81c0-1.77.62-3.16,1.87-4.18,1.25-1.02,2.72-1.51,4.41-1.47l6.34.11v5.93Z"/>
    <path class="st0" d="M742.62,507.32c0,1.23.44,2.3,1.33,3.2.88.9,1.96,1.35,3.23,1.35s2.29-.45,3.2-1.35c.9-.9,1.35-1.97,1.35-3.2s-.45-2.28-1.35-3.17c-.9-.88-1.97-1.33-3.2-1.33s-2.34.44-3.23,1.33c-.88.88-1.33,1.94-1.33,3.17Z"/>
    <path class="st0" d="M756.5,528.17c0,1.34-.43,2.44-1.3,3.28-.86.85-2.06,1.27-3.6,1.27s-2.67-.39-3.51-1.18c-.85-.79-1.27-1.83-1.27-3.14v-10.37h-7.95v10.14c0,1.34-.45,2.44-1.35,3.28-.9.85-2.14,1.27-3.72,1.27-1.42,0-2.58-.4-3.48-1.21-.9-.81-1.35-1.85-1.35-3.11v-10.37h-7.84v12.73c0,.54-.19,1-.58,1.38-.38.38-.85.58-1.38.58h-3.46c-.69,0-1.32.18-1.89.51v-.51h-41.59c-1.19,0-2.22-.43-3.08-1.3-.86-.86-1.3-1.89-1.3-3.08v-16.02h-7.89v26.62c0,2.46-.74,4.26-2.22,5.42-1.48,1.15-3.68,2-6.6,2.53l2.94,7.55c4.07-.77,7.29-2.3,9.65-4.61,2.36-2.3,3.72-5.32,4.06-9.04l.06-1.27c1.34.77,2.8,1.15,4.38,1.15h41.59v-.49c.56.31,1.19.49,1.89.49h3.46c1.27,0,2.48-.25,3.63-.75,1.15-.5,2.15-1.19,3-2.07,2.11,1.88,4.65,2.82,7.61,2.82,1.96,0,3.7-.28,5.21-.83,1.52-.56,2.93-1.47,4.23-2.74,2.19,2.38,5.11,3.57,8.76,3.57,2.3,0,4.44-.55,6.39-1.64,1.96-1.09,3.52-2.59,4.7-4.49,1.17-1.9,1.76-4.02,1.76-6.37v-15.84h-7.95v15.84Z"/>
    <path class="st0" d="M741.17,501.1c1.27,0,2.34-.44,3.23-1.32.88-.88,1.32-1.96,1.32-3.23s-.44-2.29-1.32-3.17c-.88-.88-1.96-1.33-3.23-1.33s-2.3.44-3.2,1.33c-.9.88-1.35,1.94-1.35,3.17s.45,2.34,1.35,3.23c.9.88,1.97,1.32,3.2,1.32Z"/>
    <path class="st0" d="M735.41,511.87c1.27,0,2.34-.45,3.23-1.35.88-.9,1.33-1.97,1.33-3.2s-.44-2.28-1.33-3.17c-.88-.88-1.96-1.33-3.23-1.33s-2.3.44-3.2,1.33c-.9.88-1.35,1.94-1.35,3.17s.45,2.3,1.35,3.2c.9.9,1.97,1.35,3.2,1.35Z"/>
    <path class="st0" d="M272.32,626.45c-1.27,0-2.34.44-3.23,1.33-.88.88-1.32,1.94-1.32,3.17s.44,2.34,1.32,3.23c.88.88,1.96,1.33,3.23,1.33s2.3-.44,3.2-1.33c.9-.88,1.35-1.96,1.35-3.23s-.45-2.29-1.35-3.17c-.9-.88-1.97-1.33-3.2-1.33Z"/>
    <path class="st0" d="M283.9,626.45c-1.27,0-2.34.44-3.23,1.33-.88.88-1.33,1.94-1.33,3.17s.44,2.34,1.33,3.23c.88.88,1.96,1.33,3.23,1.33s2.29-.44,3.2-1.33c.9-.88,1.35-1.96,1.35-3.23s-.45-2.29-1.35-3.17c-.9-.88-1.97-1.33-3.2-1.33Z"/>
    <path class="st0" d="M400.65,592.26c.9-.9,1.35-1.97,1.35-3.2s-.45-2.29-1.35-3.17c-.9-.88-1.97-1.32-3.2-1.32s-2.34.44-3.23,1.32c-.88.88-1.32,1.94-1.32,3.17s.44,2.3,1.32,3.2c.88.9,1.96,1.35,3.23,1.35s2.29-.45,3.2-1.35Z"/>
    <path class="st0" d="M389.1,592.26c.88-.9,1.33-1.97,1.33-3.2s-.44-2.29-1.33-3.17c-.88-.88-1.96-1.32-3.23-1.32s-2.3.44-3.2,1.32c-.9.88-1.35,1.94-1.35,3.17s.45,2.3,1.35,3.2c.9.9,1.97,1.35,3.2,1.35s2.34-.45,3.23-1.35Z"/>
    <path class="st0" d="M425.74,612.16c0,.54-.2,1.01-.6,1.41-.4.4-.87.61-1.41.61h-3.75c-1,0-1.89-.35-2.68-1.07-.79-.71-1.28-1.57-1.47-2.56v-28.69h-8.01v28.63c0,1-.36,1.86-1.07,2.59-.71.73-1.57,1.09-2.56,1.09h-4.09c-1.04,0-1.95-.35-2.74-1.07-.79-.71-1.26-1.57-1.41-2.56v-11.12h-8.01v11.06c0,1-.36,1.86-1.07,2.59-.71.73-1.57,1.09-2.56,1.09h-4.15v-.06l-6.34.06c1.04-1.19,1.82-2.56,2.36-4.12.54-1.56.81-3.08.81-4.58,0-1.84-.42-3.59-1.27-5.24-.85-1.65-2.03-3.05-3.54-4.21-1.52-1.15-3.24-1.9-5.15-2.25-1.23-.23-2.42-.35-3.57-.35-4.07,0-8.43,1.31-13.08,3.92l-1.96,5.47,5.13,11.35h-8.41c-.58,0-1.07-.21-1.5-.63-.42-.42-.63-.94-.63-1.55v-4.84c-.04-2.42-.7-4.66-1.99-6.71-1.29-2.05-2.99-3.69-5.1-4.9-2.11-1.21-4.4-1.82-6.86-1.82h-14.75v18.03c0,.77-.2,1.36-.61,1.78-.4.42-.97.63-1.7.63h-25.41c-1,0-1.89-.35-2.68-1.07-.79-.71-1.28-1.57-1.47-2.56v-12.04h-8.01v11.98c0,1-.36,1.86-1.07,2.59-.71.73-1.57,1.09-2.56,1.09h-45.63c-1.19,0-2.22-.43-3.08-1.3-.86-.87-1.3-1.89-1.3-3.08v-16.02h-7.89v26.62c0,2.46-.74,4.26-2.22,5.42-1.48,1.15-3.68,2-6.6,2.53l2.94,7.55c4.07-.77,7.29-2.3,9.65-4.61,2.36-2.3,3.72-5.32,4.06-9.05l.06-1.27c1.34.77,2.8,1.15,4.38,1.15h46.55c2.73,0,5.13-.98,7.2-2.94,1.04.92,2.22,1.64,3.54,2.16,1.33.52,2.7.78,4.12.78h25.41c1.46,0,2.84-.31,4.15-.92,1.31-.61,2.42-1.48,3.34-2.59,1.31,1.19,2.73,2.07,4.26,2.65,1.53.58,3.3.86,5.3.86,1.65,0,3.24-.31,4.75-.92,1.52-.61,2.87-1.46,4.06-2.54.81,1.08,1.85,1.92,3.14,2.54,1.29.62,2.66.92,4.12.92h40.04c1.38,0,2.69-.26,3.92-.78,1.23-.52,2.34-1.24,3.34-2.16,2.23,1.96,4.78,2.94,7.66,2.94h5.01c2.73,0,5.13-.98,7.2-2.94,1.04.92,2.22,1.64,3.54,2.16,1.32.52,2.7.78,4.12.78h3.75c1.8,0,3.46-.45,4.98-1.35,1.52-.9,2.73-2.11,3.63-3.63.9-1.52,1.35-3.18,1.35-4.98v-30.3h-7.95v30.3ZM335,608.13c0,1.73-.6,3.16-1.79,4.29-1.19,1.13-2.8,1.72-4.84,1.76-1.61,0-3.02-.57-4.21-1.7-1.19-1.13-1.79-2.49-1.79-4.06v-6.68h5.99c1.96,0,3.53.51,4.72,1.53,1.19,1.02,1.82,2.37,1.9,4.06v.81ZM368.99,605.82c-.11,1.31-.67,2.8-1.67,4.49-1,1.69-2.71,2.82-5.13,3.4l-5.01-10.14.23-.81c2.38-.88,4.5-1.32,6.34-1.32.61,0,1.23.06,1.84.17,1.07.19,1.94.7,2.59,1.53.65.83.92,1.72.81,2.68Z"/>
    <path class="st0" d="M475.8,588.77c1.27,0,2.34-.44,3.23-1.33.88-.88,1.32-1.96,1.32-3.23s-.44-2.28-1.32-3.17c-.88-.88-1.96-1.33-3.23-1.33s-2.3.44-3.2,1.33c-.9.88-1.35,1.94-1.35,3.17s.45,2.34,1.35,3.23c.9.88,1.97,1.33,3.2,1.33Z"/>
    <path class="st0" d="M464.28,588.77c1.27,0,2.34-.44,3.23-1.33.88-.88,1.32-1.96,1.32-3.23s-.44-2.28-1.32-3.17c-.88-.88-1.96-1.33-3.23-1.33s-2.3.44-3.2,1.33c-.9.88-1.35,1.94-1.35,3.17s.45,2.34,1.35,3.23c.9.88,1.97,1.33,3.2,1.33Z"/>
    <path class="st0" d="M538.71,612.04c0,.58-.2,1.08-.61,1.5-.4.42-.91.63-1.53.63h-52.95c-.84,0-1.45-.19-1.81-.58-.37-.38-.55-.98-.55-1.79l-.06-18.09h-14.29c-2.69,0-5.11.57-7.26,1.7-2.15,1.13-3.83,2.74-5.04,4.81-1.21,2.07-1.81,4.46-1.81,7.14v1.15c0,2.46.64,4.73,1.93,6.83,1.29,2.09,3.01,3.74,5.18,4.95,2.17,1.21,4.5,1.81,7,1.81,1.73,0,3.38-.32,4.95-.95,1.58-.63,2.96-1.51,4.15-2.62.96,1.11,2.1,1.99,3.43,2.62,1.33.63,2.72.95,4.18.95h52.89c1.84,0,3.54-.45,5.1-1.35,1.56-.9,2.79-2.13,3.69-3.69.9-1.56,1.35-3.24,1.35-5.04v-18.26h-7.95v18.26ZM473.27,607.78c0,1.77-.61,3.27-1.84,4.52-1.23,1.25-2.73,1.87-4.5,1.87s-3.16-.59-4.41-1.76c-1.25-1.17-1.87-2.58-1.87-4.23v-.81c0-1.77.62-3.16,1.87-4.18,1.25-1.02,2.72-1.51,4.41-1.47l6.34.11v5.93Z"/>
    <path class="st0" d="M530.47,626.45c-1.23,0-2.3.44-3.2,1.33-.9.88-1.35,1.94-1.35,3.17s.45,2.34,1.35,3.23c.9.88,1.97,1.33,3.2,1.33s2.34-.44,3.23-1.33c.88-.88,1.33-1.96,1.33-3.23s-.44-2.29-1.33-3.17c-.88-.88-1.96-1.33-3.23-1.33Z"/>
    <path class="st0" d="M542.05,626.45c-1.23,0-2.3.44-3.2,1.33-.9.88-1.35,1.94-1.35,3.17s.45,2.34,1.35,3.23c.9.88,1.97,1.33,3.2,1.33s2.34-.44,3.23-1.33c.88-.88,1.33-1.96,1.33-3.23s-.44-2.29-1.33-3.17c-.88-.88-1.96-1.33-3.23-1.33Z"/>
    <path class="st0" d="M557.95,620.4c0,1.88-.32,3.35-.95,4.41-.63,1.06-1.62,1.84-2.97,2.36-1.34.52-3.21.87-5.59,1.07l2.94,7.55c4.69-.23,8.28-1.7,10.77-4.41,2.5-2.71,3.74-6.37,3.74-10.97v-26.62h-7.95v26.62Z"/>
    <path class="st0" d="M738.98,612.16c0,.54-.2,1.01-.6,1.41-.4.4-.87.61-1.41.61h-3.8c-.58,0-1.07-.21-1.5-.63-.42-.42-.63-.94-.63-1.55v-4.84c-.04-2.42-.7-4.66-1.99-6.71-1.29-2.05-2.99-3.69-5.1-4.9-2.11-1.21-4.4-1.82-6.86-1.82h-14.75v18.03c0,.77-.2,1.36-.61,1.78-.4.42-.97.63-1.7.63h-.92v-.06l-6.34.06c1.04-1.19,1.82-2.56,2.36-4.12.54-1.56.81-3.08.81-4.58,0-1.84-.42-3.59-1.27-5.24-.85-1.65-2.03-3.05-3.54-4.21-1.52-1.15-3.24-1.9-5.15-2.25-1.23-.23-2.42-.35-3.57-.35-4.07,0-8.43,1.31-13.08,3.92l-1.96,5.47,5.13,11.35h-8.41c-.58,0-1.07-.21-1.5-.63-.42-.42-.63-.94-.63-1.55v-4.84c-.04-2.42-.7-4.66-1.99-6.71-1.29-2.05-2.99-3.69-5.1-4.9-2.11-1.21-4.4-1.82-6.86-1.82h-14.75v18.03c0,.77-.2,1.36-.61,1.78-.4.42-.97.63-1.7.63h-47.26c-.54,0-1.01-.2-1.41-.61-.4-.4-.61-.87-.61-1.41v-30.3h-7.95v30.3c0,1.8.44,3.47,1.33,4.98.88,1.52,2.08,2.73,3.6,3.63,1.52.9,3.18,1.35,4.98,1.35h47.32c1.46,0,2.84-.31,4.15-.92,1.31-.61,2.42-1.48,3.34-2.59,1.31,1.19,2.73,2.07,4.26,2.65,1.53.58,3.3.86,5.3.86,1.65,0,3.24-.31,4.75-.92,1.52-.61,2.87-1.46,4.06-2.54.81,1.08,1.85,1.92,3.14,2.54,1.29.62,2.66.92,4.12.92h35.95c1.46,0,2.84-.31,4.15-.92,1.31-.61,2.42-1.48,3.34-2.59,1.31,1.19,2.73,2.07,4.26,2.65,1.53.58,3.3.86,5.3.86,1.65,0,3.24-.31,4.75-.92,1.52-.61,2.87-1.46,4.06-2.54.81,1.08,1.85,1.92,3.14,2.54,1.29.62,2.66.92,4.12.92h3.8c1.8,0,3.46-.45,4.98-1.35,1.52-.9,2.73-2.11,3.63-3.63.9-1.52,1.35-3.18,1.35-4.98v-30.3h-7.95v30.3ZM653.95,608.13c0,1.73-.6,3.16-1.79,4.29-1.19,1.13-2.8,1.72-4.84,1.76-1.61,0-3.02-.57-4.21-1.7-1.19-1.13-1.79-2.49-1.79-4.06v-6.68h5.99c1.96,0,3.53.51,4.72,1.53,1.19,1.02,1.82,2.37,1.9,4.06v.81ZM687.94,605.82c-.11,1.31-.67,2.8-1.67,4.49-1,1.69-2.71,2.82-5.13,3.4l-5.01-10.14.23-.81c2.38-.88,4.49-1.32,6.34-1.32.61,0,1.23.06,1.84.17,1.07.19,1.94.7,2.59,1.53.65.83.92,1.72.81,2.68ZM723.03,608.13c0,1.73-.6,3.16-1.79,4.29-1.19,1.13-2.8,1.72-4.84,1.76-1.61,0-3.02-.57-4.21-1.7-1.19-1.13-1.79-2.49-1.79-4.06v-6.68h5.99c1.96,0,3.53.51,4.72,1.53,1.19,1.02,1.82,2.37,1.9,4.06v.81Z"/>
    <rect class="st0" x="756.5" y="581.8" width="7.95" height="40.33"/>
    <g>
      <polygon class="st0" points="875.9 456.1 863.91 468.08 863.91 480.07 875.9 480.07 875.9 456.1"/>
      <polygon class="st0" points="803.97 468.08 803.97 468.08 791.98 456.09 791.98 480.07 803.97 480.07 803.97 468.08"/>
      <polygon class="st0" points="827.95 456.09 815.97 444.11 815.96 444.11 815.96 480.07 827.95 480.07 827.95 456.09"/>
      <polygon class="st0" points="851.92 444.11 839.94 456.09 839.94 480.07 851.92 480.07 851.92 444.11"/>
      <rect class="st0" x="791.98" y="516.03" width="83.91" height="11.98"/>
      <rect class="st0" x="791.98" y="492.05" width="83.91" height="11.98"/>
      <polygon class="st0" points="827.95 563.97 827.95 575.96 875.9 575.96 875.9 540 839.94 540 839.94 551.98 863.91 551.98 863.91 563.97 827.95 563.97"/>
      <polygon class="st0" points="803.97 551.98 815.96 551.98 815.96 540 791.98 540 791.98 575.96 803.97 575.96 803.97 551.98"/>
      <rect class="st0" x="839.94" y="623.91" width="11.98" height="11.98"/>
      <polygon class="st0" points="875.9 587.95 875.9 635.89 863.9 635.89 863.9 611.92 839.93 611.92 839.93 587.95 875.9 587.95"/>
      <polygon class="st0" points="803.99 599.94 803.99 611.92 827.96 611.92 827.96 635.89 791.98 635.89 791.98 587.95 827.96 587.95 827.96 599.93 827.94 599.94 803.99 599.94"/>
    </g>
  </g>
</svg>